# xmcd CD database file generated by OrangeCD 5.1
#
# Track frame offsets:
#	150
#	16457
#	32852
#	50855
#
# Disc length: 930 seconds
#
# Revision: 0
# Processed by: cddbd v1.4PL0 Copyright (c) Steve Scherf et al.
# Submitted via: OrangeCD 5.1
#
DISCID=3203a004
DTITLE=Charlie Daniels Band - Sampler
DYEAR=1900
DGENRE=Country
TTITLE0=The Devil Went Down To Georgia
TTITLE1=Then, Now And Until The End
TTITLE2=The South's Gonna Do It Again
TTITLE3=To Be With Joanna Again
EXTD=
EXTT0=
EXTT1=
EXTT2=
EXTT3=
PLAYORDER=
